#N canvas 420 33 1238 653 12;
#X obj 445 55 OSC;
#X msg 445 31 version;
#X obj 141 322 mtof;
#X floatatom 147 354 5 0 0 0 - - -;
#X obj 669 131 print unmatch;
#X obj 239 437 *~;
#X obj 204 369 phasor~;
#X obj 540 368 vline~;
#X obj 335 346 trigger b;
#X msg 472 227 36;
#X msg 537 223 38;
#X msg 583 223 40;
#X msg 677 221 43;
#X msg 724 222 45;
#X msg 767 221 47;
#X msg 88 230 24;
#X msg 153 226 26;
#X msg 199 226 28;
#X msg 293 224 31;
#X msg 340 225 33;
#X msg 383 224 35;
#X obj 229 463 hip~ 50;
#X obj 33 15 dumpOSC 33333;
#X msg 459 354 2;
#X msg 247 224 30;
#X obj 110 52 OSCroute /C1 /D1 /E1 /F#1 /G1 /A1 /B1 /C2 /D2 /E2 /F#2
/G2 /A2 /B2;
#X msg 631 221 42;
#X obj 284 382 phasor~;
#X obj 292 354 * 2;
#X obj 473 456 lop~ 500;
#X msg 552 293 \$1 20 \, 0 180 150;
#X obj 222 408 lores~ 700;
#X obj 267 540 output~;
#X obj 232 497 *~ 0.25;
#X connect 1 0 0 0;
#X connect 2 0 3 0;
#X connect 3 0 6 0;
#X connect 3 0 8 0;
#X connect 3 0 28 0;
#X connect 5 0 21 0;
#X connect 6 0 31 0;
#X connect 7 0 5 1;
#X connect 8 0 23 0;
#X connect 9 0 2 0;
#X connect 10 0 2 0;
#X connect 11 0 2 0;
#X connect 12 0 2 0;
#X connect 13 0 2 0;
#X connect 14 0 2 0;
#X connect 15 0 2 0;
#X connect 16 0 2 0;
#X connect 17 0 2 0;
#X connect 18 0 2 0;
#X connect 19 0 2 0;
#X connect 20 0 2 0;
#X connect 21 0 33 0;
#X connect 22 0 25 0;
#X connect 23 0 30 0;
#X connect 24 0 2 0;
#X connect 25 0 15 0;
#X connect 25 1 16 0;
#X connect 25 2 17 0;
#X connect 25 3 24 0;
#X connect 25 4 18 0;
#X connect 25 5 19 0;
#X connect 25 6 20 0;
#X connect 25 7 9 0;
#X connect 25 8 10 0;
#X connect 25 9 11 0;
#X connect 25 10 26 0;
#X connect 25 11 12 0;
#X connect 25 12 13 0;
#X connect 25 13 14 0;
#X connect 25 14 4 0;
#X connect 26 0 2 0;
#X connect 27 0 31 0;
#X connect 28 0 27 0;
#X connect 30 0 7 0;
#X connect 31 0 5 0;
#X connect 33 0 32 0;
#X connect 33 0 32 1;
