#N canvas 479 350 1136 716 10;
#N canvas 0 22 450 300 (subpatch) 0;
#X array kick 12184 float 2;
#X coords 0 1 12184 -1 200 140 1;
#X restore 424 45 graph;
#X obj -202 82 bng 15 250 50 0 empty empty empty 17 7 0 10 -262144
-1 -1;
#X msg -198 361 \; pd dsp \$1;
#X obj -198 329 tgl 15 0 empty empty empty 17 7 0 10 -262144 -1 -1
1 1;
#N canvas 0 22 450 300 file_read 0;
#X obj 102 103 bng 15 250 50 0 empty empty empty 17 7 0 10 -262144
-1 -1;
#X obj 102 129 openpanel;
#X obj 102 194 soundfiler;
#X msg 102 161 read -resize \$1 kick;
#X connect 0 0 1 0;
#X connect 1 0 3 0;
#X connect 3 0 2 0;
#X coords 0 -1 1 1 20 20 2 100 100;
#X restore 403 45 pd file_read;
#X obj -198 282 loadbang;
#X msg -198 305 1;
#N canvas 0 22 450 300 (subpatch) 0;
#X array snare 11660 float 2;
#X coords 0 1 11660 -1 200 140 1;
#X restore 432 211 graph;
#X obj -69 88 bng 15 250 50 0 empty empty empty 17 7 0 10 -262144 -1
-1;
#N canvas 0 22 450 300 file_read 0;
#X obj 102 103 bng 15 250 50 0 empty empty empty 17 7 0 10 -262144
-1 -1;
#X obj 102 129 openpanel;
#X obj 102 194 soundfiler;
#X msg 102 161 read -resize \$1 snare;
#X connect 0 0 1 0;
#X connect 1 0 3 0;
#X connect 3 0 2 0;
#X coords 0 -1 1 1 20 20 2 100 100;
#X restore 411 211 pd file_read;
#X obj -202 136 *~ 1;
#X obj -69 141 *~ 1;
#X obj -192 170 send~ out_tr1;
#X obj -40 170 send~ out_tr2;
#X obj 46 512 dac~;
#X obj -72 364 receive~ out_tr1;
#X obj 34 361 receive~ out_tr2;
#X obj 34 385 hip~ 5;
#X obj -72 396 hip~ 5;
#X obj -202 108 tabplay~ kick;
#X obj -69 114 tabplay~ snare;
#N canvas 0 22 450 300 (subpatch) 0;
#X array close_hh 5554 float 2;
#X coords 0 1 5554 -1 200 140 1;
#X restore 430 386 graph;
#X obj 61 92 bng 15 250 50 0 empty empty empty 17 7 0 10 -262144 -1
-1;
#N canvas 0 22 450 300 file_read 0;
#X obj 102 103 bng 15 250 50 0 empty empty empty 17 7 0 10 -262144
-1 -1;
#X obj 102 129 openpanel;
#X obj 102 194 soundfiler;
#X msg 102 161 read -resize \$1 close_hh;
#X connect 0 0 1 0;
#X connect 1 0 3 0;
#X connect 3 0 2 0;
#X coords 0 -1 1 1 20 20 2 100 100;
#X restore 409 386 pd file_read;
#X obj 61 147 *~ 1;
#X obj 61 118 tabplay~ close_hh;
#X obj 83 173 send~ out_tr3;
#X obj 102 408 hip~ 5;
#X obj 102 384 receive~ out_tr3;
#N canvas 0 22 450 300 (subpatch) 0;
#X array open_hh 12248 float 2;
#X coords 0 1 12248 -1 200 140 1 0 0;
#X restore 431 548 graph;
#N canvas 0 22 450 300 file_read 0;
#X obj 102 103 bng 15 250 50 0 empty empty empty 17 7 0 10 -262144
-1 -1;
#X obj 102 129 openpanel;
#X obj 102 194 soundfiler;
#X msg 102 161 read -resize \$1 open_hh;
#X connect 0 0 1 0;
#X connect 1 0 3 0;
#X connect 3 0 2 0;
#X coords 0 -1 1 1 20 20 2 100 100;
#X restore 410 548 pd file_read;
#X obj 197 90 bng 15 250 50 0 empty empty empty 17 7 0 10 -262144 -1
-1;
#X obj 197 150 *~ 1;
#X obj 197 116 tabplay~ open_hh;
#X obj 215 175 send~ out_tr4;
#X obj 121 459 hip~ 5;
#X obj 121 435 receive~ out_tr4;
#X obj -202 12 dumpOSC 22222;
#N canvas 0 22 450 300 (subpatch) 0;
#X array pad 165375 float 2;
#X coords 0 1 165375 -1 200 140 1 0 0;
#X restore 671 48 graph;
#N canvas 0 22 450 300 file_read 0;
#X obj 102 103 bng 15 250 50 0 empty empty empty 17 7 0 10 -262144
-1 -1;
#X obj 102 129 openpanel;
#X obj 102 194 soundfiler;
#X msg 102 161 read -resize \$1 pad;
#X connect 0 0 1 0;
#X connect 1 0 3 0;
#X connect 3 0 2 0;
#X coords 0 -1 1 1 20 20 2 100 100;
#X restore 650 48 pd file_read;
#X obj 208 -9 bng 15 250 50 0 empty empty empty 17 7 0 10 -262144 -1
-1;
#X obj 208 41 *~ 1;
#X obj 208 69 send~ out_tr5;
#X obj 218 525 hip~ 5;
#X obj 241 439 receive~ out_tr5;
#X obj 26 34 print unmatch;
#X obj 208 17 tabplay~ pad;
#X obj 297 3 bng 15 250 50 0 empty empty empty 17 7 0 10 -262144 -1
-1;
#X obj 297 53 *~ 1;
#X obj 297 29 tabplay~ voice;
#X obj 297 81 send~ out_tr6;
#N canvas 0 22 450 300 (subpatch) 0;
#X array voice 165375 float 2;
#X coords 0 1 165375 -1 200 140 1 0 0;
#X restore 670 283 graph;
#N canvas 0 22 450 300 file_read 0;
#X obj 102 103 bng 15 250 50 0 empty empty empty 17 7 0 10 -262144
-1 -1;
#X obj 102 129 openpanel;
#X obj 102 194 soundfiler;
#X msg 102 161 read -resize \$1 voice;
#X connect 0 0 1 0;
#X connect 1 0 3 0;
#X connect 3 0 2 0;
#X coords 0 -1 1 1 20 20 2 100 100;
#X restore 649 283 pd file_read;
#X obj -202 41 OSCroute /C1 /D1 /F#1 /A#1 /C2 /D2;
#X obj 262 379 hip~ 5;
#X obj 262 355 receive~ out_tr6;
#X obj 348 404 *~ 0.85;
#X obj -51 427 *~ 1;
#X obj 215 471 *~ 0.7;
#X connect 1 0 19 0;
#X connect 3 0 2 0;
#X connect 5 0 6 0;
#X connect 6 0 3 0;
#X connect 8 0 20 0;
#X connect 10 0 12 0;
#X connect 11 0 13 0;
#X connect 15 0 18 0;
#X connect 16 0 17 0;
#X connect 17 0 14 1;
#X connect 17 0 14 0;
#X connect 18 0 57 0;
#X connect 19 0 10 0;
#X connect 20 0 11 0;
#X connect 22 0 25 0;
#X connect 24 0 26 0;
#X connect 25 0 24 0;
#X connect 27 0 14 0;
#X connect 27 0 14 1;
#X connect 28 0 27 0;
#X connect 31 0 33 0;
#X connect 32 0 34 0;
#X connect 33 0 32 0;
#X connect 35 0 14 0;
#X connect 35 0 14 1;
#X connect 36 0 35 0;
#X connect 37 0 53 0;
#X connect 40 0 46 0;
#X connect 41 0 42 0;
#X connect 43 0 14 0;
#X connect 43 0 14 1;
#X connect 44 0 58 0;
#X connect 46 0 41 0;
#X connect 47 0 49 0;
#X connect 48 0 50 0;
#X connect 49 0 48 0;
#X connect 53 0 1 0;
#X connect 53 1 8 0;
#X connect 53 2 22 0;
#X connect 53 3 31 0;
#X connect 53 4 40 0;
#X connect 53 5 47 0;
#X connect 53 6 45 0;
#X connect 54 0 56 0;
#X connect 55 0 54 0;
#X connect 56 0 14 0;
#X connect 56 0 14 1;
#X connect 57 0 14 0;
#X connect 57 0 14 1;
#X connect 58 0 43 0;
